/* XPM */
static char *_54973edd1f14b5c9c2052aac79be4f5krm12945gj37tFxh[] = {
/* columns rows colors chars-per-pixel */
"64 64 244 2 ",
"   c #47463E",
".  c #474743",
"X  c #4C4B45",
"o  c #4E4D49",
"O  c #504F47",
"+  c #514F4B",
"@  c #4E514A",
"#  c #53524D",
"$  c #5A574D",
"%  c #4B575C",
"&  c #565551",
"*  c #595752",
"=  c #5C5B54",
"-  c #57595B",
";  c #5C5C5B",
":  c #615E57",
">  c #646256",
",  c #64635B",
"<  c #6A665D",
"1  c #6C695E",
"2  c #706F5D",
"3  c #4B5E63",
"4  c #585E60",
"5  c #586368",
"6  c #536673",
"7  c #546976",
"8  c #546B7B",
"9  c #596C78",
"0  c #586F7E",
"q  c #636564",
"w  c #6D6B63",
"e  c #66696A",
"r  c #6C6D6C",
"t  c #736E64",
"y  c #706E6E",
"u  c #6D716D",
"i  c #757265",
"p  c #73726D",
"a  c #7A7569",
"s  c #7C7A6D",
"d  c #646D74",
"f  c #6C6E72",
"g  c #706F72",
"h  c #6E7172",
"j  c #697279",
"k  c #737473",
"l  c #7B7676",
"z  c #757875",
"x  c #7B7A74",
"c  c #74767A",
"v  c #76797B",
"b  c #7B7C7C",
"n  c #847E6C",
"m  c #827D74",
"M  c #827D7D",
"N  c #B1707B",
"B  c #DF5C6E",
"V  c #CF687A",
"C  c #7E817D",
"Z  c #85806D",
"A  c #858275",
"S  c #898375",
"D  c #84837B",
"F  c #8C847B",
"G  c #8B8878",
"H  c #8D8A7C",
"J  c #948C77",
"K  c #90867B",
"L  c #928C7C",
"P  c #98927D",
"I  c #9B937D",
"U  c #AA977E",
"Y  c #536B81",
"T  c #5C7382",
"R  c #5D7688",
"E  c #637986",
"W  c #767A82",
"Q  c #7B7D83",
"!  c #7B7C89",
"~  c #483CF5",
"^  c #564FDC",
"/  c #5A56DB",
"(  c #6E5AD6",
")  c #5E63DD",
"_  c #736CCF",
"`  c #6A64D6",
"'  c #534AE7",
"]  c #5A56E4",
"[  c #514BF2",
"{  c #675DE1",
"}  c #6167E2",
"|  c #827D80",
" . c #887B89",
".. c #937A87",
"X. c #9B7795",
"o. c #A37886",
"O. c #B07994",
"+. c #B67B9C",
"@. c #8F75B2",
"#. c #947BB4",
"$. c #B36EA9",
"%. c #AB79A6",
"&. c #B87AA6",
"*. c #B472AC",
"=. c #B96DB4",
"-. c #B877B5",
";. c #CC6D88",
":. c #C06AAE",
">. c #C479A9",
",. c #C36CBA",
"<. c #C674BA",
"1. c #9356C2",
"2. c #826BC7",
"3. c #CC69C5",
"4. c #62808D",
"5. c #7E8183",
"6. c #7E818A",
"7. c #7D8988",
"8. c #6B8DE5",
"9. c #7594E8",
"0. c #838383",
"q. c #8B8582",
"w. c #868986",
"e. c #8C8A83",
"r. c #83848C",
"t. c #8A848A",
"y. c #86898B",
"u. c #8B8C8B",
"i. c #928D83",
"p. c #948C89",
"a. c #8E938C",
"s. c #959284",
"d. c #9B9584",
"f. c #9E9985",
"g. c #92928B",
"h. c #9C958B",
"j. c #979888",
"k. c #9D9A8B",
"l. c #858693",
"z. c #858A94",
"x. c #8A8B95",
"c. c #878699",
"v. c #868A99",
"b. c #8B8C9B",
"n. c #938C95",
"m. c #8D9493",
"M. c #8E919D",
"N. c #929392",
"B. c #9B9B93",
"V. c #92929C",
"C. c #999998",
"Z. c #A39A85",
"A. c #AC978B",
"S. c #A39C8A",
"D. c #B49284",
"F. c #BA9486",
"G. c #B5948B",
"H. c #B78497",
"J. c #B18C92",
"K. c #A49C98",
"L. c #93A296",
"P. c #A7A18A",
"I. c #ABA48D",
"U. c #B0A88E",
"Y. c #ACA592",
"T. c #A8A697",
"R. c #B3AC94",
"E. c #B9AF94",
"W. c #B4AD9A",
"Q. c #B7B094",
"!. c #B9B194",
"~. c #B6B09B",
"^. c #BBB39B",
"/. c #8E8DA1",
"(. c #968AA6",
"). c #8E91A1",
"_. c #9393A5",
"`. c #9596AA",
"'. c #9897A9",
"]. c #9B9AAD",
"[. c #9D97B7",
"{. c #9C9DB2",
"}. c #B684A6",
"|. c #A89AA7",
" X c #AB9EA5",
".X c #B196A7",
"XX c #B18AB2",
"oX c #A39DB4",
"OX c #9EA2A8",
"+X c #9EA1B5",
"@X c #A9A6A7",
"#X c #ADA3AD",
"$X c #B3A6AA",
"%X c #ADB1AA",
"&X c #BDB6A2",
"*X c #B8B6A8",
"=X c #AEA5B0",
"-X c #A6A5B8",
";X c #B2A7B3",
":X c #AEB4B1",
">X c #B8B8B7",
",X c #C88995",
"<X c #C0B69B",
"1X c #C3BA9D",
"2X c #C686B5",
"3X c #C3BBA2",
"4X c #C4BCA6",
"5X c #C2BFB5",
"6X c #BEC1B6",
"7X c #CCC2A8",
"8X c #C4C5B8",
"9X c #938FC5",
"0X c #B88FC4",
"qX c #B2B4CB",
"wX c #BAB8C9",
"eX c #AAB6D7",
"rX c #8AB8F1",
"tX c #CB92D4",
"yX c #CDBAD1",
"uX c #D8B6E1",
"iX c #E1BBE7",
"pX c #B2C4CE",
"aX c #95CCEF",
"sX c #8ED4F6",
"dX c #8FDAFA",
"fX c #92D4F6",
"gX c #93D6F9",
"hX c #93DBFB",
"jX c #99D8F8",
"kX c #ADD8F4",
"lX c #C8C9C8",
"zX c #C4CAD2",
"xX c #D2CCD2",
"cX c #D7D3D7",
"vX c #E0DADE",
"bX c #D3D6E7",
"nX c #ECD2E9",
"mX c #E9D8EA",
"MX c #CEE2F1",
"NX c #EAE7EA",
"BX c #F1EDEE",
"VX c #EBE6F2",
"CX c #F5E6F4",
"ZX c #F8F6F6",
/* pixels */
"i.H T.>Xh.i.i.i.e.q.q.D q.T.e.q.a.N.N.>X>XN.0.0.0.g.u.5.5.5.C 5.b 0.0.5.C C b b b b b b z l z z z z z z z z z z %X%X@X:X:X:X>XC ",
"H F F F F F q.q.q.q.q.q.q.T.e.q.D 0.w.u.u.0.0.0.5.a.w.b b b b b b 0.0.b b b b b b b z z z z z z k k k k k k p D s.m.m.L.L.>Xw.u ",
"q.D e.e.q.q.q.q.F q.q.q.q.T.e.w.D 0.0.0.0.0.0.b b u.w.b b b b b v 0.5.b b b b b v v z z z z k k k k k p p p p p D a.L.L.L.%XC z ",
"q.D F p.p.p.e.q.q.D D 0.0.T.g.0.b 5.5.0.5.Q Q b b u.w.b b b b b v r.b b b b b v v c z z k k k k k k k y y y k b r.l.z.N.B.C.x z ",
"xXN.p.p.p.p.i.q.0.D D D 0.C.g.b b Q Q Q Q Q Q W b w.w.b 5.Q 5.5.Q 0.b b v v v c c c z z k k k k k k k p r y p @X:XN.m.C.OXC.z z ",
"8XT.i.g.g.p.p.q.D 0.0.0.0.C.N.b b Q Q Q Q Q Q W W Q r.6.5.5.r.0.0.0.W W v v v v c c z z k k k k h h h r r y u %Xu.OX@X:X%X@X0.w.",
"S F M q.p.h.g.u.q.0.0.0.0.C.C.Q Q Q Q Q Q Q Q Q W W Q Q 5.5.r.r.r.r.W W v b b v c c c c k k k k h h k k r r k %XC a.a.N.a.a.z w.",
"m q.F q.h.K.K.K.C.C.N.n.x.N.N.r.r.r.6.6.Q Q ! ! Q Q 6.6.6.5.5.r.N.w.Q W W W W v v c c c k k k k h h k k f r b @Xz C C C D C e e ",
"m m F q.K.xXcXxXxXyX>X;X#X|.C.V.V.V.x.x.x.z.z.z.z.l.l.l.r.r.r.n.K.C.Q W W W W v v v c k k k k k h h k g f r w.T.B.B.u.q.0.C p e ",
"M M q.p.(.uXiXuXuXuXiXnXnXnXmXcXcXxXlXwX>X-X].M.M.M.v.M.V.x.r.r.z.z.6.! Q Q Q W b v c c c k k k h g k k g r b w.B.w.q.u.w.w.0.z ",
"@XC.C.C.(.mXVXZXmXCXVXmXnXuXuXkXkXMXMXMXbXVXVXVXNXmXcXxXlXyX;X'.b.x.l.r.r.r.r.r. .Q Q W W W b b c l k k k y w.N.D z l z b b b u ",
"pXpXzXzX-XbXNXCXCXmXmXZXZXCX0XkXjXjXjXjXjXjXjXkXkXkXMXMXMXMXVXVXVXNXNXvXcXlXlX>X;X@XV.V.n.u.r.0.| | b | b x x x z b N.g.u.u.u.C ",
"zXzXzXzX-XuXmXCXnXnXnXZXZXCX0XeXjXjXjXjXjXjXjXhXjXjXjXjXjXjXjXjXkXkXkXMXMXbXvXNXNXBXBXBXNXNXcXxXlXyX>X>X@X@X@XC.b b g.g.u.u.u.w.",
"zXzXzXzX=X0XtXtXtXuXiXnXVXnX0XXXaXfXfXjXgXjXjXjXhXjXjXhXhXhXhXhXhXhXhXhXjXeX'.'.-X;X-X>X>XlXxXcXvXNXNXBXZXZXBXNXu.l b b b M C C ",
"zXzXzXzX>X-.<.-.}.-.-.2XXX0XXXXXaXfXgXjXgXhXhXjXjXjXhXhXhXhXhXhXhXhXhXaXqX.X'._._.].].'.'.].M.x.u.n.C.C.@X@X%X:Xb l z z z z p p ",
"lXlXzXzX>X&.<.&.H.H.}.2X}.XX}.XXaXfXgXjXgXgXhXhXhXhXhXhXhXhXhXhXhXhXhX;XB H.b._.{.].c.].'.].'._.x.r.r.r.0.0.0.5.z u.u.u.u.w.D D ",
"W.&X*X*X$X%.%.H.H.}.2XH.H.}.}.XXaXsXsXfXgXgXdXhXgXdXdXdXdXhXdXhXhXhXjX2XV .X-X]._././.]._.'.'.l.r.r.r.0.0.0.5.b b C.C.C.N.N.a.a.",
"F K p.h.h.X.%.}.&.*.>.}.}.J.}.XXrXaXsXsXfXgXgXdXdXdXdXdXdXhXhXhXhXhXjX.XO.;XqXwXwXyXwXwXwXqX-X-X{.'._.b.x.r.r.c K.T.T.T.B.N.N.N.",
"K F F F q.X.%.*.-.=.=.<.&.J.-.-._ _ 8.9XqXqXpXaXaXfXgXhXhXhXdXdXhXhXjX,XV .X/.{._.'._._.oXqXqX-X;XwXwXzXzXwXqXr.T.W.W.B.a.a.g.a.",
"F F F F M X.*.3.<.+.=.3.&.&.&.-.2._ _ (.G.G.G.G.Y.Y.[.8.8.9.9.rXrXsXaX>.V n.l._.b.v.b.b.-X].{.]._.r.r.0.0.r.y.j u.u.C.D z z z z ",
"F F F F F X.=.3.>.H.-.&.&.=.&.3._ _ { #.G.G.G.D.G.D.(.) ) ) [ ] } } _ +.O.n.6.v.v.b.'.c.'._.{.-Xb.Q 5.Q Q Q b k 0.0.0.r w r w r ",
"F F F F F X.=.3.+.+.,.&.*.=.*.=.2.` ` @.G.D.D.F.F.D.#.] / ] [ ) ` ) ( ;.V n.v.).b.v._.b.].'.].].'.x.r.Q W b c S T.h.p w r r w r ",
"F F F F F X.*.3.+.O.*.*.$.=.-.=._ _ ` #.F.D.F.D.F.D.#.) ` ] [ ] ^ ' ( ;.N b.b.b.v.v._.b.'.].-X{./.x.l.x.r.b k p.T.M e r p p r r ",
"F K F F F ..$.,.*.+.$.*.*.=.=.-.@._ { #.D.U D.F.F.D.#.' ] ] ' / ^ ' ( ;.;./._._.b.l./.).{.]._.l.l.V.x.r.b v u e.g.e q k z z p u ",
"F K F F F ..$.$.,.,.=.$.$.=.=.-.XXoX[.|.K.A.G.A.D.D.#.' ] ' ~ ] / ] 1.B V b.v.b.).x./._.].{._.v.x.M.r.b v v e 4 e e e z l l z a ",
"K K K F K ..=.=.,.>.=.O.+.,.>.&..X X X X#X@X XK.@X XoX9X2._ ` _ / ' 2.;.o.l.l.b._.l.v.'.{.].].6.W W W b b v q 4 q q e l l x l z ",
"K K K K K ..=.,.>.H.*.H.,X>.>.&..X X X X X X#X#X=X#X#X#X=X-X-XoX[.9X&.B o.l.l.c.b.v.b.].'.].`.! W W b b v c 5 ; q q e z z z z p ",
"K K K K F ..=.<.>.:.,.H.U H.&.+..X X X X X X X#X#X=X#X#X#X#X=X=X=X;X,XB N l.c.l./.b.c.].{.+X'.M.Q b b v v k 4 ; 5 q e u p p p p ",
"K L K K K ..*.,.,.3.,.H.H.+.%.J. X X X X X X#X=X|.>X#X#X#X#X=X=X#X#X,XV .. .v.v.v._.c.{.`.].).M.y.Q b v v f ; ; ; ; : , q q e w ",
"K K L L i.S M ....X.o.d.O.*.%. X@X#X X X X#X#X Xh. X#X#X#X#X=X=X=X=XV B o.! v.l.v.'.c.`.].-X{.M.r.x.V.5.v e - - - - ; ; ; ; : ; ",
"K K L L i.S M M | | M M M  .t.p.n.C.K.|.@X#X#XC...J.$X#X#X#X=X=X=X=XH.V ..! c.v.b.b.c.+X{.{.].'.6.b v v c 5 - - - - ; ; ; ; ; ; ",
"K K L L L F M | | | | M M M M M M M | 0.t.u.n.C.b o.,X#X#X=X=X;X=X;X$XJ.t.! v.b.z.V.).+X].{.-X6.b b v v k 5 - - - ; ; ; ; ; ; = ",
"K K K L L F M M M M M M M M | Q M | | Q Q b b b W Q 0.r.x._.|.|.=X;X;X#Xr.! x.x.x.)._.{.+X{.v.6.b v v v h - - - - ; , > : : ; = ",
"S F F K K F x M D M M M M | Q Q b Q Q Q b b b b b b W W Q M.x. .M.x.x.x.r.! x.M.x.v.`.{.+X{.b.Q v v v v h - - - - , , , > > : = ",
"Y.S.d.s.L S x D D M M b b b b b b b b b b b b b b b b b W V.v.6.x.Q 6.Q l.W z.x.z.v.-X{.+X+X_.b v v v h e k l p w w w , , : : = ",
"R.R.U.U.I.Z.x M M M b b b b b b b b b b b b b b v v v b Q b.v.! x.Q 6.W 6.! z.v.b.v.+X`.-X{.M.m.x.m.b h e C D D H H H F S x , = ",
"S.R.U.U.R.Y.m x x l l x l x x x b b b b b v b v v c c c Q b.l.r.l.W 6.b r.l.l.v.).v.`.{.-X+Xv.b b b v k e D D D H e.i.s.s.k.H : ",
"d.P.U.R.E.R.k.i.F m x l l l z z z c b v v c v c c c c c Q ).r.6.6.W 6.c r.l.l.x.b.l.`.-X{.+Xv.Q b c k h e D m D H e.i.s.s.k.k.w ",
"I Z.U.E.E.!.~.R.R.W.Y.S.h.p.F m x k k k k k h k k k k c Q _.6.5.l.W 5.b Q r.z.x.x.v.-X{.{._.M.x.x.y.k h r D C A H i.i.s.s.k.k.1 ",
"P.U.E.!.!.^.^.E.E.R.E.&X&X&X^.W.Y.K.e.D x k f r r r r h c r.b 0.Q c 5.Q b r.z.z.v.b.-X`.-X{.6.b z z z f p D D S e.i.i.s.d.k.s.: ",
"E.!.^.^.^.^.^.E.R.E.^.&X3X3X^.&X&XY.S.K.K.T.h.D p l k r f e e e f e k c f r.l.l.l.M.{.{.{.).x.y.y.b z r x S S G H s.s.d.k.k.S = ",
"<X1X<X<X^.^.!.E.!.^.^.&X&X3X^.R.Y.Y.S.Y.Z.d.F x m D H h.T.B.l r r e e e e d f j W r./.].].v.Q Q 6.Q k r D S G H e.s.j.k.k.S.a = ",
"1X1X1X1X<X!.^.^.^.^.^.^.&X&X^.^.&X&X^.^.^.W.W.T.h.S.Y.s.W.5Xg.q.T.T.D e.D s w w e e e e f k f r h h h u e.j.B.B.B.k.k.k.P.T.1 = ",
"3X1X1X<X!.<X<X^.^.^.<X^.&X3X^.^.&X&X&X^.^.E.Y.P.Y.P.Y.Y.4X5Xp.D L d.F S.Y.W.Y.Y.k.s.g.0.z f e e q q q u g.T.%X%X%X*X*X*X*XW.: = ",
"3X1X<X<X1X1X1X<X^.^.<X<X3X3X^.^.&X&X&X^.^.Y.f.s.s.s.Z.Z.4X8Xe.D T.s.m S.P.I.I.I.Y.Y.&XlXlX8X:XT.D w , l g.%X>X6X6X6X8X8X8X*Xi < ",
"3X<X1X1X1X1X1X1X1X^.<X1X3X3X^.&X&X&X&X&XE.S.Z.f.f.i.L d.*X>XF x s.s m Z.Z.S.I.Y.W.R.~.4X8XlXlX8Xk.j.s.g.g.%X>X>X8X8X8XlXlX8XQ.E.",
"1X3X3X1X1X1X1X1X1X<X<X1X3X3XR.3X3X3X&X&XY.S.S.f.f.f.s.s.T.T.x x F 1 F s.s.d.h.S.Y.Y.W.W.*X*X*XT.L s.d.g.g.T.%X>X6X8X8X8XlX4XQ.Q.",
"3X3X3X3X1X1X1X1X1X1X1X1X3X^.^.3X&X&X&X^.S.S.S.Z.f.f.k.h.h.i.s s a w S S S A m m d.I.E.&X*X4X*Xd.s.L s.s.j.@X%X*X>X6X8X8X8X^.Q.E.",
"7X3X3X1X1X1X1X1X1X1X1X1X3X^.R.^.&X&X&XY.S.S.Z.f.f.f.k.h.h.i.F m s s A S H H Z Z d.P.~.&X3X4XY.d.h.h.k.s.h.T.T.*X*X5X8X8X4XQ.E.E.",
"7X7X3X3X1X<XJ n J d.S.W.^.^.I.P.R.^.^.Z.Z.Z.f.f.f.f.f.d.h.s.H S m H L L L S n I f.P.W.~.&X~.f.f.L d.d.k.Z.P.Y.Y.W.~.&X&X~.!.^.!.",
"7X7X3X3X3XI i t t t 1 w t a n G s.k.S.f.d.I L L L d.d.f.h.s.H F A H L L S n I Z.P.Y.W.R.E.Y.Z.f.L S.S.S.P.I.Y.W.W.W.E.Q.Q.Q.!.!.",
"J Z.R.^.Z.i t 1 w < , 1 , , < , , > < 1 a m H s.d.I d.I G S H S A H L S n I Z.I.R.R.W.W.R.R.I.P.I I.I.I.I.Y.R.W.W.W.R.Q.Q.E.E.E.",
"s a a A s i t 1 < , > , > , > > > : : = ; ; = = , w a s H L L L H S n n I Z.I.U.R.R.R.E.E.R.U.U.I U.U.Y.R.R.W.W.W.E.R.Q.Q.E.E.E.",
"s m m s a i t t w 1 , , > > = = = = = = = = = = = = * # & * = ; < i n K f.I.R.R.R.R.E.E.R.E.R.R.U I.j.g.K.Y.R.R.R.R.Q.Q.Q.Q.E.E.",
"a i t i i i a a t < , , , > > = = = = = * & & & * & & # # # # & & & # # = : w a A I P.R.R.R.R.R.I.H j T E E 7.a.T.W.R.Q.Q.Q.Q.Q.",
"s.K n a w 1 < < < w i w w , > = = = = = * & & & # # # # # + # # o # # # # & # * & $ $ : i Y.R.R.Y.v d 0 T E E E E E 7.N.Y.E.!.Q.",
"s.I I L L S s i 1 1 , > > , , , , > = = = * * * * & & # # o o X o o o o + o o o + + # # t P.I.I.D b e , 5 d E 4.R R R E E W 7.a.",
"s.I I L L L H H G A s i 1 , > = = = = = = = = * * & # # # + + + o o o + o X o o + o # # s I U D j w.q = = = 5 9 0 T T T T T E E ",
"I I L L L L L L K H H G G S x a t , : * & # # # # # # # # # # + o o o o X o o X X o o # s L G 9 6 v ; & # # # 5 9 9 9 9 0 T E T ",
"L L L L L L L L L H H G H H F F F D m s a w , , * # X X X X X X X X X X X o o X X X o $ s A d 6 6 h = # # @ @ 4 6 6 7 9 9 0 8 8 ",
"L L L L L L L L H H H H H G F F F F S S A A A m x s t < > = # O . . . . X X o X X X X : n e 6 6 6 e q * @ X @ % 6 6 6 6 9 8 7 7 ",
"H L L L L L H H H H H H H G F F F F S S S A A A A m m m m x x a a w # . X . # X X X X 2 i 5 6 6 6 6 % @ o X @ 4 6 6 6 6 9 8 6 6 ",
"H L L L L H H H H H H G G F F F F S S A A A A A m m m m m x x x x s w . +   $ , = $ $ Z S r 5 6 7 8 6 3 % % 3 5 6 9 9 7 8 8 6 6 ",
"H L L L H H H H H H H G G F F F F F F S A A A A A m m m m x x x x s t .     > f.I J J I U U I H z d 9 7 8 Y 8 8 8 8 8 8 8 7 9 d "
};
