/* XPM */
static char *f621946421dc40eef82fca00d6ffdab2aNgq7uESGVZbvf4g[] = {
/* columns rows colors chars-per-pixel */
"64 64 246 2 ",
"   c #0A0908",
".  c #160D08",
"X  c #150D0A",
"o  c #13120D",
"O  c #1B140D",
"+  c #1F1A0F",
"@  c #151412",
"#  c #151717",
"$  c #191612",
"%  c #1C1A14",
"&  c #1E1D19",
"*  c #221A0F",
"=  c #221B15",
"-  c #271C15",
";  c #231E1A",
":  c #2A2216",
">  c #24221D",
",  c #2B241C",
"<  c #302815",
"1  c #33291D",
"2  c #252522",
"3  c #2A2622",
"4  c #2C2924",
"5  c #2D2D2C",
"6  c #332B24",
"7  c #392C25",
"8  c #322E2A",
"9  c #2E312D",
"0  c #3D3326",
"q  c #34322C",
"w  c #3B332A",
"e  c #2D3032",
"r  c #343432",
"t  c #3A3835",
"y  c #3D3D3D",
"u  c #45372A",
"i  c #433A2D",
"p  c #443C32",
"a  c #463D38",
"s  c #543E34",
"d  c #3E413F",
"f  c #50432E",
"g  c #4C4234",
"h  c #44413D",
"j  c #4D473A",
"k  c #4B443C",
"l  c #574737",
"z  c #544B3C",
"x  c #5B533D",
"c  c #624B3C",
"v  c #6A5037",
"b  c #66553C",
"n  c #3D3E43",
"m  c #4A3A46",
"M  c #3E4243",
"N  c #444444",
"B  c #494643",
"V  c #4B4945",
"C  c #454649",
"Z  c #46494C",
"A  c #4A4B4C",
"S  c #544D43",
"D  c #574D47",
"F  c #4F514F",
"G  c #5C5345",
"H  c #555349",
"J  c #5C544B",
"K  c #4C4D51",
"L  c #4E5254",
"P  c #4F565B",
"I  c #525354",
"U  c #585655",
"Y  c #5C5A55",
"T  c #53565A",
"R  c #565A5C",
"E  c #5C5C5B",
"W  c #6D4B4D",
"Q  c #635444",
"!  c #6B5444",
"~  c #665847",
"^  c #645B4B",
"/  c #6B5C4B",
"(  c #745A47",
")  c #635C53",
"_  c #695C54",
"`  c #745D53",
"'  c #5E615C",
"]  c #6C6249",
"[  c #74644C",
"{  c #7B664B",
"}  c #6C6353",
"|  c #64625D",
" . c #6B6758",
".. c #6B645C",
"X. c #766656",
"o. c #7D6B53",
"O. c #746C5C",
"+. c #7C6C5C",
"@. c #7B725B",
"#. c #585D61",
"$. c #625E61",
"%. c #5D6364",
"&. c #6A6864",
"*. c #746D63",
"=. c #786C64",
"-. c #7B7364",
";. c #7A7667",
":. c #7C756A",
">. c #6A7174",
",. c #787A76",
"<. c #836C4E",
"1. c #856955",
"2. c #8B6F52",
"3. c #836C5C",
"4. c #91625C",
"5. c #877457",
"6. c #97795B",
"7. c #876D64",
"8. c #96696C",
"9. c #867767",
"0. c #8C7C64",
"q. c #847A6B",
"w. c #967968",
"e. c #887D72",
"r. c #987D73",
"t. c #A57B66",
"y. c #AC7E70",
"u. c #768875",
"i. c #99845D",
"p. c #A1865D",
"a. c #8B826C",
"s. c #988568",
"d. c #8B8678",
"f. c #938373",
"g. c #9B8474",
"h. c #948B74",
"j. c #968979",
"k. c #9A8C7C",
"l. c #9A937A",
"z. c #A68869",
"x. c #B4886A",
"c. c #AB926D",
"v. c #B6936C",
"b. c #A78976",
"n. c #B58977",
"m. c #BB8C7C",
"M. c #A4947C",
"N. c #AA9679",
"B. c #B4947C",
"V. c #BA9678",
"C. c #B8A17C",
"Z. c #C4956E",
"A. c #C48877",
"S. c #C49573",
"D. c #CB9A75",
"F. c #C59878",
"G. c #CD9C79",
"H. c #D1977E",
"J. c #D29D7B",
"K. c #C9A17C",
"L. c #D2A27E",
"P. c #D8A67F",
"I. c #747881",
"U. c #7D8984",
"Y. c #888985",
"T. c #978E83",
"R. c #89918D",
"E. c #9B9384",
"W. c #9A978B",
"Q. c #9A9B93",
"!. c #AD8F85",
"~. c #B98C82",
"^. c #A99986",
"/. c #A29B8C",
"(. c #BC9D83",
"). c #B89885",
"_. c #A79D92",
"`. c #90A293",
"'. c #A9A58C",
"]. c #B8A48A",
"[. c #ABA597",
"{. c #B9A896",
"}. c #B3AC9C",
"|. c #ACB091",
" X c #B9B49A",
".X c #9AA8A8",
"XX c #A8AAA6",
"oX c #BAB6A6",
"OX c #B1B4B0",
"+X c #C79A86",
"@X c #C39C84",
"#X c #CB9089",
"$X c #D39B88",
"%X c #C5A283",
"&X c #CBA384",
"*X c #C4A48A",
"=X c #CBA38B",
"-X c #C4AB8E",
";X c #CCAA8D",
":X c #D5A482",
">X c #D9A686",
",X c #D9A887",
"<X c #D2A58A",
"1X c #D3AA8C",
"2X c #DBAA8C",
"3X c #C8A795",
"4X c #C4AB94",
"5X c #CCAD92",
"6X c #D4A895",
"7X c #DCAC93",
"8X c #DBAD9A",
"9X c #C9B499",
"0X c #D3B394",
"qX c #D2B59B",
"wX c #D8B99C",
"eX c #E1B49D",
"rX c #C6BAA6",
"tX c #D6B9A3",
"yX c #DCBCA4",
"uX c #AAC79C",
"iX c #B9C7A3",
"pX c #CEC19B",
"aX c #CAC4AB",
"sX c #D7C4A8",
"dX c #D9D5AF",
"fX c #CCC5B4",
"gX c #D5CCB7",
"hX c #D8D3BA",
"jX c #E2C7AD",
"kX c #E3DAAD",
"lX c #E5D8B8",
"zX c #B0BCC1",
"xX c #B8C5C9",
"cX c #C8CCC8",
"vX c #D9D5C5",
"bX c #C9D6D7",
"nX c #D5DCD8",
"mX c #E2DDC6",
"MX c #E1DFD1",
"NX c #DBE2DC",
"BX c #E9E5CB",
"VX c #E7E5D4",
"CX c #F5F3D2",
"ZX c #E7EAE1",
"AX c #FAFAE8",
"SX c #FDFEF9",
/* pixels */
"SXSXAXvX/././././.E.T.T.T.T.E.T.f.G 6 = % o   @ @ X   o & & @ $ > = ; O - p { g.M.^.^.M.k.g.r.r.w.9.9.7.+.9.e.q.7.9.9.9.d.W.[.OX",
"SXSXSXAX}.W.Q.Q.Q.Q.W.W.W.W.Q.W.J 1 % X % $ o 2 3 2 X o $ $ @ $ > > > & % , 7 9.{.}.}.}.{.[.{.{.[._._./.W././././.E.k./.fXVXAXAX",
"SXSXAXBXh.:.d.d.d.Y.d.j.j.j.d.-.1 O O O & & o $ % > o @ X o o % $ 2 q 4 ; 3 , i d.}.oX}.}.}.[.}.}.[.[.[./._.[.}.}.[.[.mXAXSXSXSX",
"sXsX9Xh.X. .-.q.,.;.:.:.:.:.^ w , O % > $ ; o o $ $ O $ o     o   X ; , 4 > 6 k J *.E./.E.l.l.k.k.j.d.h.j.l./.}.oXoX}.BXAXSXSXSX",
"6.6.6.5.[ / O.*. .^ Q ~ ~ x 1 : 6 3 ; $ o $ & $ & > > ; 2 & @ X     X $ % - > 3 , , w O.9.-.@.-.-.@.@.9.0.f.E.{.}.{.^.|.dXBXBXBX",
"5.2.2.<.<.[ [ } ^ Q b b b u - - , > $ $ % ; > = - > , > - , 6 6 - X X X X X = ; = % % 0 l l g g g l b [ { 5.0.g.s.0.3.X.] ] ] ] ",
"2.<.<.2.5.5.[ G S G / ] l 1 - , - ; ; % > , 6 i l c ! / ! / X.X.G p w 1 = X O % ; % $ , u u w 1 0 f v [ <.<.<.{ b v l l l l j g ",
"5.5.<.2.6.s.q.O.) ^ [ X.0 , - 1 O % - 1 u ! 1.t.n.v.V.F.V.V.V.x.x.x.z.w.1.l 1 o % $ & 4 i g z J x l b { <.<.{ b l f l l z l j g ",
"s.s.s.6.s.l.E.d.,.*.O.^ : = : , % : u ( 6.x.S.D.G.D.D.D.D.J.D.J.J.G.D.Z.x.t.1.u O X o 3 w O.mXCXhXl.[ { { [ ! b b b x x G x z x ",
"a.0.0.0.h.^.}.[.Q.d.-.J 6 = + ; 1 b 6.x.Z.D.J.J.J.J.J.J.J.J.J.:X:XL.L.G.D.Z.v.6.u X o & > O.CXCXBX9Xo.{ { / ~ ~ Q Q Q Q Q G z o.",
"[ [ [ o.M.hXZXAXZXvX[.p - % % 1 t.v.Z.Z.G.J.L.:X:X:X,X,X,X,X,X,X>X:X:X:XL.G.D.v.1.= & 2 > g dXBXdXh.{ [ / ~ Q G z S G G G S l ] ",
"s l c ( {.CXAXSXAXAXCXi = , - ! S.Z.Z.D.J.P.>X,X,X:X,X,X,X,X,X,X,X,X,X,X:XL.G.G.x.u > 2 > 1 [ X./ Q ^ ^ G z g p p g j z S G Q } ",
"! ! ` 3.^.lXCXAXAXAXCX} : , u 6.Z.S.D.J.P.,X2X2X2X,X,X,X,X,X2X2X2X7X2X,X:X:XK.G.S.{ 3 > & = u g u a G ) V q 8 4 4 w g z Q } O.9.",
"+.+.9.e.f.M.'.|.oXdXdXa.1 1 l x.Z.D.D.L.:X,X2X2X7X7X2X7X7X7X7X7X2X2X2X,X:XL.G.G.Z.z.p & o = i i t V ..&.Y h r 5 q p S ^ O.-.0.a.",
"q.:.q.d.d.d.q.-.'.lXCX'., 1 [ v.S.D.G.L.:X,X2X2X2X2X2X2X2X7X7X7X2X2X2X,X:XL.K.F.S.c.G 3 ; q B B B F | *.&.I A y h S } O.9.a.a.h.",
"-.-.-.-.:.q.;.;.|.kXCX X1 7 o.v.S.D.D.G.L.:X,X,X,X,X2X2X2X7X7X7X2X,X,X,X:XL.K.F.F.c./ - % t A F F F Y E E R L C A Y O.-.a.f.h.l.",
"_ ..} ) | ..&.*.q.'. X-.7 w o.v.S.Z.D.G.J.:X,X,X2X,X,X2X2X2X7X2X2X2X2X,X:X&XG.G.F.x.` 6 % B L L R T I L I T L F L | O.9.a.f.h.k.",
"U U U D A A U &. .} ^ ^ w 0 o.x.S.S.D.G.J.$X:X,X,X2X2X7X7X7X7X7X8X8X6X<X<X$XG.F.S.x.Q 7 > L R R R R R R R R T L U ..-.0.a.h.h.k.",
"d.&.E I T K K $.&. .} } w 7 ( x.V.Z.S.F.F.+X).!.=X6X8X8X8X8X8X8X6X).r.r.b.!.B.F.Z.c.c 6 q R R R R R R #.#.R R T R ..;.0.a.h.h.l.",
"XXR.Y.I.I.I.>.>.*. .}  .g 6 ! v.V.Z.x.z.7.G a k ` !.3X8X8X8X8X3Xw.Q a a B D X.w.v.v.! 3 r A A K L R >.,.>.%.R R E &.;.a.f.h.h.l.",
"XXXXXX.X.X.XR.R.,.O. .O.G : c v.V.z.( s i a D ^ ` 3.!.3X6X6X6X~.w.r.7.` D ) ..Q 0.v.{ , 8 y n y y L >.R.U.>.R R ' &.;.a.h.h.l.M.",
"zXxXxXxXxXxXxXOXR.-.O.@.} - l c.c.c k J ..-.e.g.z.b.b.).$X<X=X~.M.b.f.q.=.O. .) J 9.O.B n r e e 5 M %.,.>.%.R #.| *.q.a.h.h.l.M.",
"xXcXbXnXnXNXnXcXXX:.O.@.@.w H ^ / ^ / _ ~ z j g G X.9.b.@X(.b.7._ G Q _ 7.k.b.k.e.e.,.Y.%.y t e e e y M M Z R %.| *.0.a.h.l.M.N.",
"bXbXnXVXVXZXVXvXOXe.O.@.9.| &.O.M.w.z.0.+.) _ 9.e.e.q.| | >.,.:.g.f.e.I E ,.u.l.l.j.R.Y.%.y t r e e 5 4 9 C E %.&.-.0.h.l.M.M.N.",
"bXnXNXNXZXZXVXnXOXd.O.-.q.S ,.O.g.s.0.} ,.F | _.f.N.M.&...-.>.^.).g./.=.*.Q..XuXuX`.u.U.G h y r e e 5 5 9 A E &.&.-.a.s.M.M.N.N.",
"nXnXnXNXNXNXNXnXOXT.@.;.0.z >.J b.c.s.T.k.j.T.[.[.|.'...t.F.7.'.|.{._.).{.rXaXiXoX'.u.W.w.3.a t r 9 5 5 q S E | ..-.a.s.N.N.N.N.",
"bXbXbXnXnXnXbXbXOXW.;.9.z.X.,. .iXiX X9X).B.B.{.oXiX`.+.S.H.n.d.).@X).@X*X-X*X*X].(.=.f.m.t.O. .S h Y  .*.:.d.d.d.h.M.N.].].C.N.",
"bXbXbXbXbXbXbXcXOXQ.;.w.x.6.&.O. XpX].@X+X%X=X+X*X4Xe.w.H.G.F._ !.+X=X=X3X5X;X;X*X%Xg.e.*XA.^.q.) ..E.oXoXoXoX XrXrXpXaXaXtX9XC.",
"xXxXxXxXxXxXzXOXXXR.:.7.x.t.k =.].@X@X=X<X:X$X$X$Xb.! x.$X<X+Xr.X.@X<X6X6X2X7X1X;X].).9.wXF.^.:.J q.rXBXBXmXhXhXmXBXBXmXmXlXsX].",
"OXXX.XOXOXXXXX[.Q.d.*.3.Z.V.0 =.%X%X@X&X:X$X$X$Xm.! 1.A.$X7X$Xm.( g.+X$X=X=X=X=X(.M.o./ wX@XO.z t q.fXCXBXvXaXgXBXBXBXBXBXBXsX].",
"W.T.R.[.XXW.M.M.g.*...+.V.F.g +.5.7.0.w.w.w.4.1.! c y.H.7X7X<X@X8.W ` 1.7.7.7.9.w.b.).{ =Xb.w 5 r q.fXBXmXrX}.aXmXBXBXBXBXmXsXC.",
"-.*.q.^.{.N.c.c.w./ ) O.x.x.l z.K.*X).m.m.n.~.n.8.t.S.,X8X8X6X$Xm.n.~.~.3X8XtX8X7X&X%X( b.+.9 5 r ,.rXhXrXW.E.rXvXVXMXnXBXmXsXV.",
"w t  .N.-XV.v.v.z.X.) } w.x.l s.L.<X1X6X7X6X+Xt.x.m.+X7XeXyXtX<X+X+X+X+Xm.<XyXwX6X%X@X( b.G 5 5 r *./.}.T.;.d.rXMXVXVXVXBXhX9XN.",
"3 N -.N.C.v.c.v.z.3.} } 5.v.c 6.G.<X1X7X7X6Xn.m.n.t.6.m.6X8X3Xn.b.n.(.+X<Xm.6X8X1X%X%X( +.w 5 5 5 A &.&.J O.'.gXBXVXVXVXvXaX].c.",
"q ) f.).C.v.V.V.v.0./ Y } z.1.o.F.&X<X1X1Xm.@XF.m.t.X.` z.n.b.3._ ` r.b.*X(.F.7X<X%X%X! g q 5 5 5 5 r q H E.aXBXCXVXBXvXaX].c.p.",
"8 ^ 0.c.v.c.c.c.z.3.^ J ) 3.1.! S.F.%X<X@Xz.z.1.( c u u 1.B.b.! s 0 Q ` 3.0.t.1X&X%XV.c r 9 q q 9 5 q J l.aXBXBXBXBXvXrX].c.s.p.",
"2 w z ( [ { o.o.X.G j H ^ / 3.s x.V.F.<Xn.! c l ( ( Q w.m.+X+X(.g.+.r.r.+.Q ( 1X%XV.b.p H } } } D t ) /.aXBXBXBXmXhXrX^.z.i.i.p.",
"> > , : 1 1 < 1 1 6 w z G ^ } i w.n.F.<Xn.o.w.w.b.b.b.n.n.m.m.n.n.b.b.w.b.s.z.0X).g.9.z [.{.'.^.9.*./.fXBXBXBXBXhXrXN.s.i.z.z.p.",
"6 6 0 1 = + O O O - 6 g S G G w c 7.B.&X1Xx.B.z.4.t.y.m.m.m.~.#X~.y.y.n.@X=X1X;Xb.` S T.vXvXgXrXl.E.rXBXCXBXBXmXaX].s.i.N.B.c.z.",
"u f b s * O X X X X , p S G G j 0 ~ w.V.1X1X%X@Xm.x.n.A.#XA.A.#X#Xm.m.@X;X;X;XB.+.k a OXvXnXvXrXk.d.}.hXmXBXmXhXrXN.s.N. X9XC.z.",
"f ( 2.( 1 : O X X X = w k S H G w s Q w.@X1X<X&X@XF.n.A.#X$X#X6X#X~.@X*X;X;XB.3.G r ) cXvXvXvXoXf.G  .E.}.gXvXgX XM.^.9XgXsX].c.",
"Q r.B.0.! l 7 O X X = w g z S S z 6 w / b.%X<X<X%X@XF.m.m.~.~.~.).m.(.;X;X(.w.z q 3 W.OXXXoXoX}.a.p % w :.oXvXfX X'.oXhXhXsX].z.",
"} ^.rX^.3.( l : O : 1 u g z z S z i 4 k o.V.%X&X;X%XB.t.w.w.7.r.r.b.*X5X;X(.3.G q h d.&.S Y -.a.O.p X X Y XXvXfXrXrXgXvXhXsX].z.",
"} /.rX}.f.5.( f 7 i l z z z z z z j 6 3 a b.V.F.<X1X=X@Xw.! ! r.B.@X;X0X*X(.g.S 1 w 8 ; $ $ > p g 6 X X E XXfXfXfXfXvXvXhXrXN.z.",
"5.k. X}.E.0.( l w g Q ] ^ G z z z j l 0 , +.B.F.&X1X<X&Xn.7.w.!.(.;X5X5X).g.7.7 x * @ @ @ $ # & > = X X Y Q.rXoXoX}.oXrXoX'.g.6.",
"s.s.M./.h.X.l w q t z ] X.} G z z j l s.u u 0.b.V.&XV.V.(.b.!.~.B.).].M.X.^ a 0.{ - % # @ # # $ > , $ @ U T.}.[.d.*.:.e.:.O./ { ",
"c.s.s.s.o.x w 8 q q p G X.X.} / ~ x b z.z.u 0 ! 5.b.s.b.b.r.w.g.9.0.g.` 7 i g.(.{ i 8 > $ & 7 s Q c 0 = U E.}.[.;.S I Y Y U G G ",
"c.s.i.5.b p w q 8 8 q z [ 5.5.5.<.{ ( z.V.b.Q , , l ~ ` ` ` l S S k k 6 i h.].*X{ o.{ x B S 1.t.x.w.c 1 | [.rX{.0.k N S T $.&.&.",
"V.z.5./ u w q 4 4 4 q S o.i.i.i.<.( 1.t.K.V.b.[ 7 O = , , 6 3 3 3 = , O.M.].*X*X! ( V.z.1.} r.m.$Xm.<.s *.}.sX0Xs.p @ @ e N I &.",
"v.6.[ g 7 6 , 2 > 3 t / 6.p.s.o.( x.y.b.K.*XV.b.s.G 6 - ; ; & & 4 J 9.^.).].3X&X! l ;X&XS.3.| +.m.F.t.{ q.9XkXwXc.u       # 2 Z ",
"2.b i 7 4 , > ; > 5 g o.i.0.^ ^ w.D.).r.K.;X*XB.N.b.k.f.-.O.=.d._.].].].].3X5X&X! g 0X0X1XN.E I J 3.b.g.M.9XkXsXz.w         # M ",
"0 1 4 w w 3 > > > 5 k +.@.J A U c.G.8.7.K.;X0X*XB.N.^.'.].].].{.4X4X].].4X9X5X;Xx g 0XwXwX^.Y A C N J a.'.tXjXwXs.6         @ d ",
"0 7 w S G p ; ; 2 y J ) B V V U w.K.4.W ].;X0X5X].).).{.4X{.{.9X9X4X{.{.9XqX5X5Xp p 5XwXwXf.L C C M d N } ^.sX9X0.4         @ y ",
"f u l X.+.x 3 3 h Y A B B A A I X.B.` m N.;X5X0X;X(.).].tX9XrXrXrX{.].3XqX0X0X4X7 u 4XwX3X&.L C Z N N n N S :.'.@.B r & X   # n ",
"f p ^ 9.0.^ a H H V A B B A A K U q.D 8 1.;X;X5X0X;X).B.4XtXrXrX4X{.3X0X0X4XqX^., u 4XwXj.U K Z C C C N n n h H ) E Y I N 5 4 N ",
"0 p } a.q.} J B B B A V C B N C T E a w l ;X;X0X0X5X*X(.B.{.9X4X{.9XqXwXqXqXsX9.3 G 4X{.) T Z A Z A A C M n y B C A Y E | E ' Y ",
"w a  .;.) S V V h N N B C A C C A T Y cXd.).5X;X0XwX0X-X).B.].(.3XqXyXwXqXtXtXq.U.G 4Xe.#.L C C N C A C C N a y C B F U ' &.d.u.",
"4 V Y V k k B C n M C C C A A C A I ) XX&.f.5X;X5XwXwXwXqX3X].3XwXyXsXqXqXsX4Xq.XXY.j.Y T Z C Z Z A A A Z Z C N C B B B H  .l.;.",
"k D h h k B a y h C N N C A B N A A U oXXXT.4X5X0XwXwXwXqXwXqXqXyXyXyXqXwXsX!.Y.,.R.U U Z C N C Z Z A A C Z C Z N C V B B H  .H ",
"S k h k B a a y y B C N C C A C A I y :.*.J ^.qX0X0XyXyXyXwXwXwXyXyXwXqXyXsX0.Y cX,.T K K Z Z K I A K L K A C A A A A C B A F Y ",
"k h h B h h y t N C C N y N C N C C B q a 6 S E.5X0XyXjXyXyXsXjX5XjXwXtXjXtX=.n ,.t K K C M Z K K K I A A A Z A C A Z A A A A A ",
"h k B a C N t t t y y N N A A C C A A q D 6 r U -.^.qXjXjXsXsXjXsXjXtXsXqXT.F n 4 5 U Z C C Z K K L I A K K A C A A A I A A A C ",
"h N a N N y y y y N N N C C C C C A A q 6 6 8 C T Y :.^.tXtXyXyXjXyX(.g.=.| y t 6 q L L L Z K K K L I A A A A A C C C C K A A A ",
"h h N C N n N N d N C C A C A C N C A t 6 8 8 a L P T U &.=.-.9.e.:.&.&.#.#.t q 6 r L Z L A K I K A A A A A C C N N A n Z A A C "
};
